<mxfile host="65bd71144e">
    <diagram name="Kubernetes Multi-Tenancy" id="0">
        <mxGraphModel dx="597" dy="335" grid="1" gridSize="10" guides="1" tooltips="1" connect="1" arrows="1" fold="1" page="1" pageScale="1" pageWidth="827" pageHeight="1169" math="0" shadow="0">
            <root>
                <mxCell id="0"/>
                <mxCell id="1" parent="0"/>
                <mxCell id="2" value="&lt;div style=&quot;&quot;&gt;&lt;br&gt;&lt;/div&gt;" style="rounded=1;whiteSpace=wrap;html=1;fillColor=#dae8fc;strokeColor=#6c8ebf;align=center;" parent="1" vertex="1">
                    <mxGeometry x="200" y="50" width="400" height="320" as="geometry"/>
                </mxCell>
                <mxCell id="5" value="&lt;font color=&quot;#7a3838&quot;&gt;Namespaces&lt;/font&gt;" style="swimlane;whiteSpace=wrap;html=1;fillColor=#d9ead3;strokeColor=#6aa84f;" parent="2" vertex="1">
                    <mxGeometry x="220" y="74.66971428571428" width="150" height="190.47314285714288" as="geometry"/>
                </mxCell>
                <mxCell id="6" value="&lt;font color=&quot;#000000&quot;&gt;tenant-1&lt;/font&gt;" style="rounded=1;whiteSpace=wrap;html=1;fillColor=#e0f7fa;strokeColor=#4dd0e1;" parent="5" vertex="1">
                    <mxGeometry x="20" y="32" width="100" height="32" as="geometry"/>
                </mxCell>
                <mxCell id="7" value="&lt;font color=&quot;#080808&quot;&gt;tenant-2&lt;/font&gt;" style="rounded=1;whiteSpace=wrap;html=1;fillColor=#fbe9e7;strokeColor=#ff8a65;" parent="5" vertex="1">
                    <mxGeometry x="20" y="71.616" width="100" height="28.955428571428577" as="geometry"/>
                </mxCell>
                <mxCell id="10" value="&lt;font color=&quot;#030303&quot;&gt;Resource Quotas&lt;/font&gt;" style="rounded=1;whiteSpace=wrap;html=1;fillColor=#d9ead3;strokeColor=#6aa84f;" parent="5" vertex="1">
                    <mxGeometry x="20" y="144.75885714285715" width="100" height="27.42857142857143" as="geometry"/>
                </mxCell>
                <mxCell id="13" value="&lt;font color=&quot;#080808&quot;&gt;tenant-n&lt;/font&gt;" style="rounded=1;whiteSpace=wrap;html=1;fillColor=#fbe9e7;strokeColor=#ff8a65;" vertex="1" parent="5">
                    <mxGeometry x="20" y="108.18742857142857" width="100" height="25.901714285714288" as="geometry"/>
                </mxCell>
                <mxCell id="8" value="&lt;font color=&quot;#050505&quot;&gt;Monitoring&lt;/font&gt;" style="ellipse;whiteSpace=wrap;html=1;fillColor=#d9ead3;strokeColor=#6aa84f;" parent="2" vertex="1">
                    <mxGeometry x="380" y="160" width="80" height="42.666666666666664" as="geometry"/>
                </mxCell>
                <mxCell id="9" value="&lt;font color=&quot;#050505&quot;&gt;Network Policies&lt;/font&gt;" style="rhombus;whiteSpace=wrap;html=1;fillColor=#fff2cc;strokeColor=#d6b656;" parent="2" vertex="1">
                    <mxGeometry x="50" y="213.33333333333331" width="150" height="53.33333333333333" as="geometry"/>
                </mxCell>
                <mxCell id="12" value="Kubernetes Cluster" style="text;strokeColor=none;align=center;fillColor=none;html=1;verticalAlign=middle;whiteSpace=wrap;rounded=0;fontSize=15;fontColor=#261818;" vertex="1" parent="2">
                    <mxGeometry x="95" y="21.333333333333332" width="210" height="32" as="geometry"/>
                </mxCell>
                <mxCell id="3" value="Control Plane" style="rounded=1;whiteSpace=wrap;html=1;fillColor=#fff2cc;strokeColor=#d6b656;" parent="2" vertex="1">
                    <mxGeometry x="50" y="74.66666666666666" width="150" height="106.66666666666666" as="geometry"/>
                </mxCell>
                <mxCell id="4" value="&lt;font color=&quot;#a43737&quot;&gt;API Server&lt;/font&gt;" style="ellipse;whiteSpace=wrap;html=1;fillColor=#ffffff;strokeColor=#d6b656;" parent="3" vertex="1">
                    <mxGeometry x="25" y="28.953333333333333" width="100" height="42.666666666666664" as="geometry"/>
                </mxCell>
                
            </root>
        </mxGraphModel>
    </diagram>
</mxfile>